G04*
G04 #@! TF.GenerationSoftware,Altium Limited,Altium Designer,23.3.1 (30)*
G04*
G04 Layer_Color=65535*
%FSLAX44Y44*%
%MOMM*%
G71*
G04*
G04 #@! TF.SameCoordinates,88914B4D-56C6-40B9-BAF4-16A5A3F371A8*
G04*
G04*
G04 #@! TF.FilePolarity,Positive*
G04*
G01*
G75*
%ADD10C,0.2000*%
%ADD11C,0.2540*%
D10*
X217000Y225250D02*
G03*
X217000Y225250I-1000J0D01*
G01*
X304340Y203260D02*
X324660D01*
X304340Y170383D02*
Y203260D01*
Y170383D02*
X324660Y170240D01*
Y203260D01*
X214450Y303500D02*
Y337509D01*
Y303500D02*
X234150D01*
Y337296D01*
X214450Y337509D02*
X234150Y337296D01*
X391910Y178240D02*
Y211260D01*
X371590Y178383D02*
X391910Y178240D01*
X371590Y178383D02*
Y211260D01*
X391910D01*
X367550Y177741D02*
Y211750D01*
X347850D02*
X367550D01*
X347850Y177954D02*
Y211750D01*
Y177954D02*
X367550Y177741D01*
X258800Y176491D02*
Y210500D01*
X239100D02*
X258800D01*
X239100Y176704D02*
Y210500D01*
Y176704D02*
X258800Y176491D01*
X235160Y176990D02*
Y210010D01*
X214840Y177133D02*
X235160Y176990D01*
X214840Y177133D02*
Y210010D01*
X235160D01*
X178450Y235500D02*
Y269509D01*
Y235500D02*
X198150D01*
Y269296D01*
X178450Y269509D02*
X198150Y269296D01*
X258050Y303491D02*
Y337500D01*
X238350D02*
X258050D01*
X238350Y303704D02*
Y337500D01*
Y303704D02*
X258050Y303491D01*
X282050D02*
Y337500D01*
X262350D02*
X282050D01*
X262350Y303704D02*
Y337500D01*
Y303704D02*
X282050Y303491D01*
X216000Y233500D02*
X224250Y225250D01*
X328500D01*
Y287750D01*
X216000D02*
X328500D01*
X216000Y233500D02*
Y287750D01*
X210050Y303491D02*
Y337500D01*
X190350D02*
X210050D01*
X190350Y303704D02*
Y337500D01*
Y303704D02*
X210050Y303491D01*
X365800Y258741D02*
Y292750D01*
X346100D02*
X365800D01*
X346100Y258954D02*
Y292750D01*
Y258954D02*
X365800Y258741D01*
X279090Y209260D02*
X299410D01*
X279090Y176383D02*
Y209260D01*
Y176383D02*
X299410Y176240D01*
Y209260D01*
D11*
X104437Y282500D02*
X114593D01*
X109515Y287578D02*
Y277422D01*
X119672Y287578D02*
X122211Y290117D01*
X127289D01*
X129828Y287578D01*
Y285039D01*
X127289Y282500D01*
X129828Y279961D01*
Y277422D01*
X127289Y274883D01*
X122211D01*
X119672Y277422D01*
Y279961D01*
X122211Y282500D01*
X119672Y285039D01*
Y287578D01*
X122211Y282500D02*
X127289D01*
X134907Y290117D02*
Y279961D01*
X139985Y274883D01*
X145063Y279961D01*
Y290117D01*
X115343Y432078D02*
X112804Y434618D01*
X107726D01*
X105187Y432078D01*
Y421922D01*
X107726Y419383D01*
X112804D01*
X115343Y421922D01*
Y427000D01*
X110265D01*
X120422Y419383D02*
Y434618D01*
X130578Y419383D01*
Y434618D01*
X135657D02*
Y419383D01*
X143274D01*
X145813Y421922D01*
Y432078D01*
X143274Y434618D01*
X135657D01*
X440843Y146328D02*
X438304Y148868D01*
X433226D01*
X430687Y146328D01*
Y136172D01*
X433226Y133632D01*
X438304D01*
X440843Y136172D01*
Y141250D01*
X435765D01*
X445922Y133632D02*
Y148868D01*
X456078Y133632D01*
Y148868D01*
X461157D02*
Y133632D01*
X468774D01*
X471313Y136172D01*
Y146328D01*
X468774Y148868D01*
X461157D01*
X120101Y89728D02*
X117562Y92267D01*
X112483D01*
X109944Y89728D01*
Y79571D01*
X112483Y77032D01*
X117562D01*
X120101Y79571D01*
Y84649D01*
X115022D01*
X125179Y77032D02*
Y92267D01*
X135336Y77032D01*
Y92267D01*
X140414D02*
Y77032D01*
X148032D01*
X150571Y79571D01*
Y89728D01*
X148032Y92267D01*
X140414D01*
X409604Y261367D02*
Y251211D01*
X414682Y246133D01*
X419760Y251211D01*
Y261367D01*
X432456D02*
X427378D01*
X424839Y258828D01*
Y248672D01*
X427378Y246133D01*
X432456D01*
X434995Y248672D01*
Y258828D01*
X432456Y261367D01*
X440074D02*
Y248672D01*
X442613Y246133D01*
X447691D01*
X450230Y248672D01*
Y261367D01*
X455309D02*
X465466D01*
X460387D01*
Y246133D01*
X470544D02*
X475622D01*
X473083D01*
Y261367D01*
X470544Y258828D01*
X490857Y246133D02*
Y261367D01*
X483240Y253750D01*
X493396D01*
X88834Y156868D02*
Y146711D01*
X93912Y141632D01*
X98991Y146711D01*
Y156868D01*
X111687D02*
X106608D01*
X104069Y154328D01*
Y144172D01*
X106608Y141632D01*
X111687D01*
X114226Y144172D01*
Y154328D01*
X111687Y156868D01*
X119304D02*
Y144172D01*
X121843Y141632D01*
X126922D01*
X129461Y144172D01*
Y156868D01*
X134539D02*
X144696D01*
X139618D01*
Y141632D01*
X159931D02*
X149774D01*
X159931Y151789D01*
Y154328D01*
X157392Y156868D01*
X152313D01*
X149774Y154328D01*
X165009D02*
X167549Y156868D01*
X172627D01*
X175166Y154328D01*
Y151789D01*
X172627Y149250D01*
X170088D01*
X172627D01*
X175166Y146711D01*
Y144172D01*
X172627Y141632D01*
X167549D01*
X165009Y144172D01*
X323117Y138593D02*
X307882D01*
Y146211D01*
X310422Y148750D01*
X315500D01*
X318039Y146211D01*
Y138593D01*
Y143672D02*
X323117Y148750D01*
Y153828D02*
Y158907D01*
Y156368D01*
X307882D01*
X310422Y153828D01*
X229078Y358789D02*
X231618Y361328D01*
Y366407D01*
X229078Y368946D01*
X218922D01*
X216382Y366407D01*
Y361328D01*
X218922Y358789D01*
X216382Y343554D02*
Y353711D01*
X226539Y343554D01*
X229078D01*
X231618Y346093D01*
Y351172D01*
X229078Y353711D01*
X373554Y215632D02*
Y230868D01*
X381172D01*
X383711Y228328D01*
Y223250D01*
X381172Y220711D01*
X373554D01*
X378633D02*
X383711Y215632D01*
X398946D02*
X388789D01*
X398946Y225789D01*
Y228328D01*
X396407Y230868D01*
X391328D01*
X388789Y228328D01*
X354211Y228828D02*
X351672Y231367D01*
X346593D01*
X344054Y228828D01*
Y218672D01*
X346593Y216133D01*
X351672D01*
X354211Y218672D01*
X359289Y228828D02*
X361828Y231367D01*
X366907D01*
X369446Y228828D01*
Y226289D01*
X366907Y223750D01*
X364367D01*
X366907D01*
X369446Y221211D01*
Y218672D01*
X366907Y216133D01*
X361828D01*
X359289Y218672D01*
X244172Y152211D02*
X241632Y149672D01*
Y144593D01*
X244172Y142054D01*
X254328D01*
X256868Y144593D01*
Y149672D01*
X254328Y152211D01*
X244172Y157289D02*
X241632Y159828D01*
Y164907D01*
X244172Y167446D01*
X246711D01*
X249250Y164907D01*
X251789Y167446D01*
X254328D01*
X256868Y164907D01*
Y159828D01*
X254328Y157289D01*
X251789D01*
X249250Y159828D01*
X246711Y157289D01*
X244172D01*
X249250Y159828D02*
Y164907D01*
X229867Y144054D02*
X214632D01*
Y151672D01*
X217172Y154211D01*
X222250D01*
X224789Y151672D01*
Y144054D01*
Y149132D02*
X229867Y154211D01*
Y166907D02*
X214632D01*
X222250Y159289D01*
Y169446D01*
X184461Y289328D02*
X181922Y291868D01*
X176843D01*
X174304Y289328D01*
Y279172D01*
X176843Y276632D01*
X181922D01*
X184461Y279172D01*
X199696Y291868D02*
X189539D01*
Y284250D01*
X194618Y286789D01*
X197157D01*
X199696Y284250D01*
Y279172D01*
X197157Y276632D01*
X192078D01*
X189539Y279172D01*
X253578Y360039D02*
X256117Y362578D01*
Y367657D01*
X253578Y370196D01*
X243422D01*
X240882Y367657D01*
Y362578D01*
X243422Y360039D01*
X256117Y344804D02*
X253578Y349882D01*
X248500Y354961D01*
X243422D01*
X240882Y352422D01*
Y347343D01*
X243422Y344804D01*
X245961D01*
X248500Y347343D01*
Y354961D01*
X278328Y360039D02*
X280868Y362578D01*
Y367657D01*
X278328Y370196D01*
X268172D01*
X265632Y367657D01*
Y362578D01*
X268172Y360039D01*
X265632Y347343D02*
X280868D01*
X273250Y354961D01*
Y344804D01*
X305843Y308867D02*
Y296172D01*
X308382Y293633D01*
X313461D01*
X316000Y296172D01*
Y308867D01*
X321078Y293633D02*
X326157D01*
X323618D01*
Y308867D01*
X321078Y306328D01*
X202828Y359289D02*
X205368Y361828D01*
Y366907D01*
X202828Y369446D01*
X192672D01*
X190133Y366907D01*
Y361828D01*
X192672Y359289D01*
X205368Y354211D02*
Y344054D01*
X202828D01*
X192672Y354211D01*
X190133D01*
X356500Y315328D02*
X353961Y317868D01*
X348882D01*
X346343Y315328D01*
Y305172D01*
X348882Y302633D01*
X353961D01*
X356500Y305172D01*
X361578Y302633D02*
X366657D01*
X364118D01*
Y317868D01*
X361578Y315328D01*
X295368Y135304D02*
X280132D01*
Y142922D01*
X282672Y145461D01*
X287750D01*
X290289Y142922D01*
Y135304D01*
Y140382D02*
X295368Y145461D01*
X282672Y150539D02*
X280132Y153078D01*
Y158157D01*
X282672Y160696D01*
X285211D01*
X287750Y158157D01*
Y155618D01*
Y158157D01*
X290289Y160696D01*
X292828D01*
X295368Y158157D01*
Y153078D01*
X292828Y150539D01*
M02*
