G04*
G04 #@! TF.GenerationSoftware,Altium Limited,Altium Designer,23.3.1 (30)*
G04*
G04 Layer_Physical_Order=2*
G04 Layer_Color=16711680*
%FSLAX44Y44*%
%MOMM*%
G71*
G04*
G04 #@! TF.SameCoordinates,88914B4D-56C6-40B9-BAF4-16A5A3F371A8*
G04*
G04*
G04 #@! TF.FilePolarity,Positive*
G04*
G01*
G75*
%ADD22C,4.0000*%
%ADD23C,0.6000*%
%ADD24C,0.4000*%
G36*
X496681Y69D02*
X-181D01*
Y491750D01*
X496681D01*
Y69D01*
D02*
G37*
%LPC*%
G36*
X128318Y341000D02*
X124182D01*
X120125Y340193D01*
X116303Y338610D01*
X112863Y336312D01*
X109938Y333387D01*
X107640Y329947D01*
X106057Y326125D01*
X105250Y322068D01*
Y317932D01*
X106057Y313874D01*
X107640Y310053D01*
X109938Y306613D01*
X112863Y303688D01*
X116303Y301390D01*
X120125Y299807D01*
X124182Y299000D01*
X128318D01*
X132375Y299807D01*
X136197Y301390D01*
X139637Y303688D01*
X142562Y306613D01*
X144860Y310053D01*
X146443Y313874D01*
X147250Y317932D01*
Y322068D01*
X146443Y326125D01*
X144860Y329947D01*
X142562Y333387D01*
X139637Y336312D01*
X136197Y338610D01*
X132375Y340193D01*
X128318Y341000D01*
D02*
G37*
G36*
X452018Y238500D02*
X447882D01*
X443825Y237693D01*
X440003Y236110D01*
X436563Y233812D01*
X433638Y230887D01*
X431340Y227447D01*
X429757Y223626D01*
X428950Y219568D01*
Y215432D01*
X429757Y211374D01*
X431340Y207553D01*
X433638Y204113D01*
X436563Y201188D01*
X440003Y198890D01*
X443825Y197307D01*
X447882Y196500D01*
X452018D01*
X456076Y197307D01*
X459897Y198890D01*
X463337Y201188D01*
X466262Y204113D01*
X468560Y207553D01*
X470143Y211374D01*
X470950Y215432D01*
Y219568D01*
X470143Y223626D01*
X468560Y227447D01*
X466262Y230887D01*
X463337Y233812D01*
X459897Y236110D01*
X456076Y237693D01*
X452018Y238500D01*
D02*
G37*
G36*
X131518Y201750D02*
X127382D01*
X123324Y200943D01*
X119503Y199360D01*
X116063Y197062D01*
X113138Y194137D01*
X110840Y190697D01*
X109257Y186875D01*
X108450Y182818D01*
Y178682D01*
X109257Y174625D01*
X110840Y170803D01*
X113138Y167363D01*
X116063Y164438D01*
X119503Y162140D01*
X123324Y160557D01*
X127382Y159750D01*
X131518D01*
X135576Y160557D01*
X139397Y162140D01*
X142837Y164438D01*
X145762Y167363D01*
X148060Y170803D01*
X149643Y174625D01*
X150450Y178682D01*
Y182818D01*
X149643Y186875D01*
X148060Y190697D01*
X145762Y194137D01*
X142837Y197062D01*
X139397Y199360D01*
X135576Y200943D01*
X131518Y201750D01*
D02*
G37*
%LPD*%
D22*
X449250Y104750D02*
D03*
X449950Y217500D02*
D03*
X129450Y180750D02*
D03*
X126250Y320000D02*
D03*
X126000Y392750D02*
D03*
X128500Y48500D02*
D03*
D23*
X314500Y164750D02*
D03*
X289250Y170750D02*
D03*
X171250Y269000D02*
D03*
X167000Y259500D02*
D03*
X375250Y266250D02*
D03*
X200250Y342500D02*
D03*
X224250Y342500D02*
D03*
X248250Y342500D02*
D03*
X272250D02*
D03*
X225000Y171500D02*
D03*
X249000D02*
D03*
X357750Y172750D02*
D03*
X381750D02*
D03*
D24*
X292250Y276500D02*
D03*
Y284500D02*
D03*
X276250Y260500D02*
D03*
Y268500D02*
D03*
X316250D02*
D03*
X308250D02*
D03*
X316250Y260500D02*
D03*
X308250D02*
D03*
X284250Y284500D02*
D03*
X276250D02*
D03*
X284250Y276500D02*
D03*
X276250D02*
D03*
X300250Y268500D02*
D03*
X292250D02*
D03*
X284250D02*
D03*
X300250Y260500D02*
D03*
X292250D02*
D03*
X284250D02*
D03*
X316250Y244500D02*
D03*
X308250D02*
D03*
X300250D02*
D03*
X292250D02*
D03*
X284250D02*
D03*
X276250D02*
D03*
X284250Y236500D02*
D03*
X276250D02*
D03*
X260250Y228500D02*
D03*
X252250D02*
D03*
X260250Y236500D02*
D03*
X252250D02*
D03*
X260250Y244500D02*
D03*
X252250D02*
D03*
X260250Y260500D02*
D03*
X252250D02*
D03*
Y268500D02*
D03*
X260250D02*
D03*
Y276500D02*
D03*
X244250Y244500D02*
D03*
X236250D02*
D03*
X244250Y260500D02*
D03*
X236250D02*
D03*
X244250Y268500D02*
D03*
X236250D02*
D03*
X228250Y244500D02*
D03*
Y268500D02*
D03*
Y260500D02*
D03*
M02*
