G04*
G04 #@! TF.GenerationSoftware,Altium Limited,Altium Designer,23.3.1 (30)*
G04*
G04 Layer_Color=16711935*
%FSLAX44Y44*%
%MOMM*%
G71*
G04*
G04 #@! TF.SameCoordinates,88914B4D-56C6-40B9-BAF4-16A5A3F371A8*
G04*
G04*
G04 #@! TF.FilePolarity,Negative*
G04*
G01*
G75*
%ADD18C,4.2032*%
%ADD19C,0.8032*%
%ADD20C,0.6032*%
D18*
X449250Y104750D02*
D03*
X449950Y217500D02*
D03*
X129450Y180750D02*
D03*
X126250Y320000D02*
D03*
X126000Y392750D02*
D03*
X128500Y48500D02*
D03*
D19*
X314500Y164750D02*
D03*
X289250Y170750D02*
D03*
X171250Y269000D02*
D03*
X167000Y259500D02*
D03*
X375250Y266250D02*
D03*
X200250Y342500D02*
D03*
X224250Y342500D02*
D03*
X248250Y342500D02*
D03*
X272250D02*
D03*
X225000Y171500D02*
D03*
X249000D02*
D03*
X357750Y172750D02*
D03*
X381750D02*
D03*
D20*
X292250Y276500D02*
D03*
Y284500D02*
D03*
X276250Y260500D02*
D03*
Y268500D02*
D03*
X316250D02*
D03*
X308250D02*
D03*
X316250Y260500D02*
D03*
X308250D02*
D03*
X284250Y284500D02*
D03*
X276250D02*
D03*
X284250Y276500D02*
D03*
X276250D02*
D03*
X300250Y268500D02*
D03*
X292250D02*
D03*
X284250D02*
D03*
X300250Y260500D02*
D03*
X292250D02*
D03*
X284250D02*
D03*
X316250Y244500D02*
D03*
X308250D02*
D03*
X300250D02*
D03*
X292250D02*
D03*
X284250D02*
D03*
X276250D02*
D03*
X284250Y236500D02*
D03*
X276250D02*
D03*
X260250Y228500D02*
D03*
X252250D02*
D03*
X260250Y236500D02*
D03*
X252250D02*
D03*
X260250Y244500D02*
D03*
X252250D02*
D03*
X260250Y260500D02*
D03*
X252250D02*
D03*
Y268500D02*
D03*
X260250D02*
D03*
Y276500D02*
D03*
X244250Y244500D02*
D03*
X236250D02*
D03*
X244250Y260500D02*
D03*
X236250D02*
D03*
X244250Y268500D02*
D03*
X236250D02*
D03*
X228250Y244500D02*
D03*
Y268500D02*
D03*
Y260500D02*
D03*
M02*
