M48
;Layer_Color=9474304
;FILE_FORMAT=4:4
METRIC,LZ
;TYPE=PLATED
T1F00S00C0.2000
T2F00S00C0.3000
T3F00S00C1.5000
%
T01
X0022825Y002445
X0023625
X0024425
X0025225
Y002365
X0026025
Y002445
X0027625
Y002365
X0028425
Y002445
X0029225
X0030025
X0030825
X0031625
Y002605
X0030825
Y002685
X0031625
X0030025
X0029225
Y002765
X0028425
Y002685
X0027625
Y002765
Y002845
X0028425
X0029225
Y002605
X0028425
X0027625
X0026025
X0025225
Y002685
X0026025
Y002765
X0024425Y002685
Y002605
X0023625
X0022825
Y002685
X0023625
X0025225Y002285
X0026025
X0030025Y002605
T02
X0035775Y0017275
X0038175
X0037525Y0026625
X003145Y0016475
X0028925Y0017075
X00249Y001715
X00225
X00167Y002595
X0017125Y00269
X0020025Y003425
X0022425Y003425
X0024825Y003425
X0027225
T03
X0044925Y0010475
X0044995Y002175
X0012945Y0018075
X001285Y000485
X0012625Y0032
X00126Y0039275
M30
